<svg width="158" height="338" viewBox="0 0 158 338" fill="none" xmlns="http://www.w3.org/2000/svg">
<path d="M65.7062 305.834L66.3184 335.016L27.9049 335.919C28.0353 332.447 47.7238 325.011 47.7238 325.011L46.5196 306.336L65.7062 305.834Z" fill="#455A64"/>
<g opacity="0.6">
<path d="M59.5636 323.165C59.9256 323.251 60.2419 323.47 60.4501 323.779C60.6582 324.087 60.743 324.462 60.6875 324.83C60.586 325.195 60.351 325.508 60.0293 325.706C59.7076 325.905 59.3228 325.976 58.9515 325.904C58.7508 325.877 58.5582 325.808 58.3867 325.7C58.2152 325.593 58.0688 325.45 57.9573 325.281C57.8458 325.112 57.7718 324.921 57.7405 324.721C57.7091 324.521 57.721 324.317 57.7753 324.122C57.8297 323.927 57.9253 323.746 58.0556 323.591C58.1859 323.436 58.348 323.311 58.5308 323.224C58.7137 323.137 58.913 323.09 59.1154 323.087C59.3178 323.084 59.5186 323.124 59.7041 323.205" fill="white"/>
</g>
<g opacity="0.6">
<path d="M66.3184 335.016L66.1277 332.075L29.37 334.082C29.37 334.082 27.6841 334.825 27.9049 335.959L66.3184 335.016Z" fill="white"/>
</g>
<path d="M47.101 324.84C47.101 325.021 48.0443 325.081 48.9876 325.633C49.9309 326.185 50.4326 326.908 50.6032 326.837C50.7738 326.767 50.4728 325.744 49.3188 325.101C48.1648 324.459 47.0509 324.68 47.101 324.84Z" fill="#263238"/>
<path d="M43.1069 326.516C43.1069 326.687 43.8896 326.968 44.5519 327.701C45.2142 328.433 45.4149 329.226 45.5554 329.216C45.6959 329.206 45.8363 328.212 45.0034 327.299C44.1706 326.386 43.1069 326.346 43.1069 326.516Z" fill="#263238"/>
<path d="M40.9394 331.122C41.11 331.122 41.3508 330.269 40.8491 329.306C40.3474 328.343 39.4543 327.982 39.374 328.132C39.2937 328.283 39.8557 328.784 40.257 329.577C40.6584 330.37 40.7588 331.112 40.9394 331.122Z" fill="#263238"/>
<path d="M47.3415 320.556C47.4218 320.716 48.2848 320.455 49.3485 320.496C50.4122 320.536 51.2451 320.837 51.3554 320.686C51.4658 320.536 50.6329 319.914 49.3485 319.883C48.064 319.853 47.2311 320.425 47.3415 320.556Z" fill="#263238"/>
<path d="M48.1245 316.23C48.7604 316.379 49.4238 316.362 50.0512 316.18C50.7421 316.047 51.4155 315.835 52.0581 315.548C52.4316 315.378 52.7936 315.183 53.1419 314.966C53.3539 314.849 53.5468 314.7 53.7139 314.525C53.8337 314.4 53.9055 314.237 53.9165 314.064C53.9275 313.891 53.8771 313.72 53.7741 313.581C53.6766 313.454 53.5501 313.353 53.4052 313.284C53.2603 313.216 53.1012 313.184 52.9412 313.19C52.7 313.196 52.4605 313.233 52.2287 313.3C51.8188 313.405 51.4191 313.546 51.0346 313.722C50.399 314.009 49.8131 314.395 49.2986 314.866C48.4255 315.658 48.1345 316.331 48.2048 316.361C48.275 316.391 48.7065 315.859 49.5996 315.187C50.1205 314.801 50.6867 314.481 51.2855 314.234C51.6451 314.095 52.0139 313.981 52.3893 313.892C52.7907 313.782 53.1319 313.772 53.2423 313.892C53.3526 314.013 53.2423 313.983 53.2423 314.103C53.1207 314.229 52.9822 314.337 52.8308 314.424C52.5061 314.632 52.1712 314.822 51.8273 314.996C51.2366 315.293 50.6182 315.532 49.9809 315.709C49.3501 315.837 48.7296 316.011 48.1245 316.23Z" fill="#263238"/>
<path d="M48.3466 316.481C48.6935 315.961 48.856 315.339 48.8082 314.715C48.8291 314.033 48.7236 313.352 48.4971 312.708C48.3604 312.327 48.1856 311.961 47.9753 311.615C47.8571 311.373 47.6804 311.165 47.4614 311.009C47.2423 310.853 46.9879 310.754 46.721 310.721C46.5529 310.729 46.3902 310.783 46.2505 310.877C46.1108 310.971 45.9993 311.101 45.9282 311.253C45.8339 311.466 45.7762 311.693 45.7576 311.926C45.6919 312.331 45.6919 312.744 45.7576 313.15C45.8859 313.831 46.1826 314.469 46.6206 315.006C47.4033 315.93 48.1861 316.12 48.2061 316.06C48.2262 316 47.604 315.649 47.002 314.755C46.6609 314.246 46.438 313.666 46.3497 313.06C46.2946 312.71 46.2946 312.355 46.3497 312.006C46.3497 311.625 46.5403 311.303 46.6909 311.344C46.8414 311.384 47.2227 311.615 47.3833 311.926C47.5814 312.244 47.7494 312.58 47.885 312.929C48.1164 313.506 48.2586 314.115 48.3065 314.735C48.457 315.789 48.2764 316.451 48.3466 316.481Z" fill="#263238"/>
<path d="M94.817 308.263L98.5199 337.213L136.652 332.477C136.01 329.065 115.449 324.6 115.449 324.6L113.903 305.945L94.817 308.263Z" fill="#455A64"/>
<g opacity="0.6">
<path d="M103.427 324.499C103.08 324.637 102.797 324.9 102.635 325.237C102.473 325.573 102.444 325.959 102.554 326.316C102.71 326.659 102.99 326.932 103.337 327.08C103.684 327.229 104.074 327.243 104.43 327.119C104.799 326.974 105.099 326.694 105.269 326.336C105.439 325.978 105.465 325.569 105.344 325.192C105.143 324.861 104.828 324.614 104.459 324.498C104.09 324.382 103.691 324.404 103.337 324.56" fill="white"/>
</g>
<g opacity="0.6">
<path d="M98.5189 337.214L98.268 334.273L134.915 330.842C134.915 330.842 136.651 331.283 136.651 332.477L98.5189 337.214Z" fill="white"/>
</g>
<path d="M116.001 324.339C116.001 324.519 115.098 324.71 114.245 325.393C113.392 326.075 113 326.868 112.82 326.817C112.639 326.767 112.82 325.724 113.823 324.921C114.827 324.118 116.021 324.168 116.001 324.339Z" fill="#263238"/>
<path d="M120.186 325.402C120.256 325.573 119.484 325.974 118.942 326.797C118.4 327.62 118.309 328.423 118.129 328.443C117.948 328.463 117.697 327.44 118.39 326.436C119.082 325.433 120.166 325.262 120.186 325.402Z" fill="#263238"/>
<path d="M123.006 329.647C122.845 329.708 122.484 328.865 122.845 327.841C123.206 326.818 124.029 326.326 124.12 326.456C124.21 326.587 123.738 327.179 123.457 328.022C123.176 328.865 123.196 329.607 123.006 329.647Z" fill="#263238"/>
<path d="M115.149 320.134C115.088 320.304 114.205 320.134 113.142 320.365C112.078 320.595 111.315 320.977 111.205 320.836C111.095 320.696 111.797 319.973 113.031 319.753C114.266 319.532 115.229 319.983 115.149 320.134Z" fill="#263238"/>
<path d="M113.724 315.97C113.117 316.205 112.461 316.281 111.817 316.191C111.117 316.167 110.422 316.056 109.75 315.859C109.352 315.752 108.963 315.615 108.586 315.448C108.358 315.364 108.145 315.245 107.954 315.097C107.818 314.99 107.724 314.84 107.687 314.671C107.651 314.503 107.674 314.327 107.753 314.174C107.835 314.035 107.947 313.918 108.081 313.829C108.214 313.74 108.367 313.683 108.526 313.662C108.765 313.631 109.008 313.631 109.248 313.662C109.666 313.702 110.08 313.783 110.482 313.903C111.156 314.092 111.796 314.387 112.379 314.776C113.382 315.438 113.734 316.06 113.673 316.1C113.613 316.14 113.101 315.669 112.128 315.147C111.218 314.647 110.213 314.346 109.178 314.264C108.756 314.214 108.415 314.264 108.335 314.434C108.255 314.605 108.335 314.535 108.405 314.635C108.546 314.741 108.701 314.826 108.867 314.886C109.215 315.051 109.573 315.192 109.94 315.307C110.569 315.511 111.213 315.659 111.867 315.749C112.491 315.775 113.111 315.849 113.724 315.97Z" fill="#263238"/>
<path d="M113.512 316.231C113.093 315.764 112.843 315.171 112.8 314.545C112.68 313.881 112.68 313.202 112.8 312.538C112.873 312.141 112.991 311.754 113.151 311.384C113.23 311.128 113.373 310.896 113.566 310.71C113.759 310.524 113.996 310.39 114.255 310.32C114.422 310.301 114.591 310.329 114.743 310.4C114.895 310.47 115.025 310.582 115.118 310.722C115.237 310.923 115.328 311.139 115.389 311.364C115.507 311.757 115.558 312.168 115.539 312.578C115.526 313.287 115.325 313.979 114.957 314.585C114.325 315.589 113.573 315.92 113.542 315.86C113.512 315.799 114.084 315.358 114.546 314.394C114.806 313.839 114.94 313.232 114.937 312.618C114.935 312.278 114.881 311.939 114.777 311.615C114.676 311.233 114.486 310.942 114.335 311.003C114.185 311.063 113.864 311.354 113.743 311.675C113.595 311.999 113.474 312.335 113.382 312.678C113.248 313.284 113.197 313.905 113.231 314.525C113.332 315.579 113.573 316.231 113.512 316.231Z" fill="#263238"/>
<path d="M35.9138 150.967L95.7116 152.883C95.7116 152.883 109.811 246.99 109.419 253.543L118.109 321.78L92.8215 322.673C92.8215 322.673 88.8076 300.526 86.0681 285.374C84.2216 275.339 80.8499 260.507 79.9368 252.088C79.0236 243.669 64.2322 184.854 64.2322 184.854C64.2322 184.854 65.326 253.091 65.2959 255.901C65.2658 258.711 68.2261 322.593 68.2261 322.593H43.1389C41.8444 311.063 38.7637 264.922 38.1215 255.6C36.9173 238.762 33.104 191.196 32.5923 179.044C32.0805 166.892 35.9138 150.967 35.9138 150.967Z" fill="#263238"/>
<path d="M39.8565 151.428C40.1364 150.013 40.1364 148.558 39.8565 147.143C39.5622 148.556 39.5622 150.015 39.8565 151.428Z" fill="#455A64"/>
<path d="M37.3678 152.562C37.8439 150.757 37.6844 148.844 36.9163 147.143C36.9435 148.051 37.0306 148.956 37.1772 149.852C37.18 150.759 37.2437 151.664 37.3678 152.562Z" fill="#455A64"/>
<path d="M59.704 148.077C60.1894 148.176 60.6315 148.426 60.9684 148.789C61.1366 148.98 61.2606 149.206 61.3317 149.451C61.4028 149.695 61.4192 149.952 61.3798 150.204C61.2948 150.493 61.1317 150.752 60.9086 150.954C60.6855 151.156 60.4111 151.292 60.1154 151.348C59.8198 151.405 59.5144 151.378 59.2329 151.272C58.9514 151.165 58.7047 150.983 58.5199 150.746C58.3931 150.526 58.315 150.281 58.2908 150.028C58.2665 149.776 58.2968 149.521 58.3794 149.281C58.5554 148.815 58.8799 148.42 59.3026 148.157C59.3026 148.157 59.132 148.157 58.8812 148.267C58.5248 148.47 58.2486 148.789 58.0985 149.17C57.9729 149.454 57.9148 149.763 57.9287 150.073C57.9426 150.383 58.0282 150.685 58.1787 150.957C58.3998 151.275 58.7085 151.523 59.0675 151.67C59.4265 151.817 59.8204 151.857 60.2015 151.785C60.5827 151.713 60.9347 151.531 61.2151 151.263C61.4954 150.995 61.6921 150.652 61.7812 150.274C61.8223 149.966 61.7912 149.652 61.6901 149.358C61.5891 149.063 61.4211 148.796 61.1992 148.578C60.9159 148.281 60.5416 148.087 60.1355 148.026C59.8546 147.996 59.704 148.056 59.704 148.077Z" fill="#455A64"/>
<path d="M87.2711 251.927C89.4544 251.266 91.5929 250.465 93.6734 249.529C95.8113 248.729 97.8961 247.794 99.915 246.729C97.7296 247.394 95.588 248.195 93.5028 249.128C91.3692 249.93 89.2879 250.865 87.2711 251.927Z" fill="#455A64"/>
<path d="M90.4916 9.52483C90.3009 6.04273 88.1535 3.89527 85.1531 2.11909C83.6404 1.2412 81.9381 0.741699 80.191 0.663078C78.4438 0.584456 76.7036 0.929046 75.1182 1.66753C73.0109 2.67102 71.1645 4.37694 68.8564 4.67799C65.0432 5.1697 61.4407 1.66753 57.7077 2.5205C56.5939 2.78754 55.6069 3.432 54.9146 4.34439C54.2222 5.25677 53.8671 6.38076 53.9097 7.52533C53.9522 8.66989 54.3898 9.76442 55.1481 10.6229C55.9063 11.4813 56.9384 12.0507 58.069 12.2342C55.5703 12.5955 54.1654 15.7565 55.0585 18.0946C55.9516 20.4327 58.5908 21.8075 61.0794 21.8577C63.6143 21.7772 66.0785 21.0033 68.2042 19.6199C70.3817 18.3555 72.4188 16.8302 74.6967 15.7464C76.9329 14.5388 79.5233 14.1586 82.0122 14.6727C85.3136 15.5458 87.6517 18.6867 88.5047 21.958C89.3577 25.2294 88.9964 28.7516 88.5047 32.1234C88.013 35.4951 87.3407 38.8969 87.6618 42.2987C87.6594 42.4918 87.7017 42.6827 87.7852 42.8568C87.8688 43.0308 87.9914 43.1833 88.1435 43.3022C88.6452 43.5832 89.2272 43.1115 89.5985 42.67C93.8245 37.6559 97.0228 31.8594 99.0112 25.6107C100.165 21.9982 100.797 18.4759 99.4226 14.9437C98.0479 11.4114 93.4017 8.04971 90.4515 9.4847" fill="#263238"/>
<path d="M93.7325 26.3433L88.1631 60.7328C87.1596 67.1551 82.945 73.3667 72.87 71.2593C64.2601 68.7707 64.9023 62.5792 66.0262 54.9426C66.0262 54.9426 56.5533 52.4841 57.4063 42.8506C57.8077 38.1945 59.4132 28.6814 61.0088 20.0916C61.8232 15.6436 64.2825 11.6653 67.8974 8.94856C71.5123 6.23183 76.0175 4.97586 80.5166 5.43062L81.4498 5.52093C91.3944 7.15661 95.599 16.4489 93.7325 26.3433Z" fill="#FFBE9D"/>
<path d="M66.0273 54.9429C70.467 55.3769 74.9381 54.5307 78.9121 52.5044C78.9121 52.5044 75.139 59.6492 65.636 57.8229L66.0273 54.9429Z" fill="#EB996E"/>
<path d="M62.8961 28.5109C62.8562 28.8681 62.9578 29.2268 63.1791 29.51C63.4004 29.7933 63.7239 29.9785 64.0802 30.0262C64.2532 30.0592 64.4311 30.0568 64.6032 30.0191C64.7753 29.9815 64.938 29.9094 65.0815 29.8072C65.225 29.705 65.3462 29.5748 65.438 29.4244C65.5298 29.2741 65.5902 29.1067 65.6155 28.9324C65.6554 28.5751 65.5538 28.2165 65.3325 27.9332C65.1112 27.65 64.7877 27.4647 64.4314 27.4171C64.2585 27.3856 64.081 27.389 63.9095 27.4272C63.738 27.4655 63.5758 27.5377 63.4327 27.6397C63.2895 27.7416 63.1683 27.8713 63.0761 28.0209C62.984 28.1706 62.9227 28.3372 62.8961 28.5109Z" fill="#263238"/>
<path d="M62.5948 25.0189C62.7454 25.2196 63.8693 24.5473 65.3444 24.7078C66.8195 24.8684 67.833 25.7113 68.0137 25.5407C68.1943 25.3701 67.9535 25.1293 67.522 24.7379C66.9251 24.229 66.1856 23.9171 65.4046 23.8448C64.6359 23.7601 63.8605 23.9292 63.1969 24.3265C62.7052 24.6275 62.5246 24.9286 62.5948 25.0189Z" fill="#263238"/>
<path d="M76.3531 30.6383C76.3132 30.9956 76.4148 31.3542 76.6361 31.6375C76.8575 31.9207 77.1809 32.106 77.5372 32.1536C77.7102 32.1866 77.8882 32.1842 78.0603 32.1466C78.2324 32.109 78.395 32.0369 78.5385 31.9347C78.682 31.8324 78.8033 31.7022 78.895 31.5519C78.9868 31.4015 79.0472 31.2341 79.0726 31.0598C79.1125 30.7026 79.0109 30.3439 78.7895 30.0607C78.5682 29.7775 78.2447 29.5922 77.8884 29.5445C77.7155 29.513 77.5381 29.5164 77.3665 29.5547C77.195 29.5929 77.0328 29.6651 76.8897 29.7671C76.7466 29.8691 76.6253 29.9987 76.5332 30.1484C76.441 30.298 76.3798 30.4646 76.3531 30.6383Z" fill="#263238"/>
<path d="M76.8155 26.7548C76.9761 26.9455 78.09 26.2832 79.5651 26.4337C81.0402 26.5842 82.0537 27.4372 82.2344 27.2766C82.415 27.1161 82.1742 26.8652 81.7427 26.4738C81.1458 25.9649 80.4063 25.653 79.6253 25.5807C78.858 25.4995 78.0848 25.6647 77.4176 26.0524C76.9259 26.3534 76.7453 26.6645 76.8155 26.7548Z" fill="#263238"/>
<path d="M70.6337 37.181C69.8805 36.8524 69.0878 36.623 68.2755 36.4987C67.9042 36.4284 67.553 36.318 67.5129 36.0471C67.5238 35.655 67.6494 35.2748 67.8741 34.9533C68.3257 34.0803 68.7973 33.157 69.279 32.1937C71.286 28.26 72.7009 25.0087 72.5403 24.9285C71.0816 27.1665 69.7999 29.5151 68.707 31.9529L67.3423 34.7426C67.0652 35.1742 66.9447 35.6878 67.0011 36.1976C67.0404 36.3376 67.1117 36.4666 67.2091 36.5746C67.3066 36.6825 67.4277 36.7664 67.563 36.8198C67.768 36.8917 67.9799 36.9421 68.1952 36.9703C68.9964 37.1398 69.8153 37.2105 70.6337 37.181Z" fill="#263238"/>
<path d="M77.2958 20.9248C77.3961 21.3463 78.8913 21.3061 80.6073 21.6874C82.3232 22.0688 83.6779 22.6909 83.9389 22.3497C84.0593 22.1792 83.8586 21.7778 83.3267 21.3463C82.6253 20.8007 81.8101 20.42 80.9416 20.2323C80.073 20.0447 79.1733 20.055 78.3093 20.2625C77.6069 20.4431 77.2556 20.7341 77.2958 20.9248Z" fill="#263238"/>
<path d="M63.5683 20.794C63.7991 21.1653 64.8528 20.9145 66.0771 21.0248C67.3013 21.1352 68.3148 21.4764 68.5858 21.1453C68.7062 20.9847 68.5858 20.6335 68.1543 20.2722C67.5868 19.8363 66.9035 19.5772 66.1896 19.5272C65.4758 19.4772 64.763 19.6386 64.1403 19.9912C63.6486 20.2923 63.468 20.6234 63.5683 20.794Z" fill="#263238"/>
<path d="M92.2373 33.3882C92.4079 33.328 99.0409 32.0937 98.1679 38.6465C97.2949 45.1992 90.8926 42.9815 90.9127 42.7909C90.9328 42.6002 92.2373 33.3882 92.2373 33.3882Z" fill="#FFBE9D"/>
<path d="M93.2411 40.5728C93.2411 40.5728 93.3414 40.6631 93.5221 40.7835C93.7799 40.9327 94.0844 40.9793 94.375 40.914C94.8346 40.7004 95.2291 40.3686 95.5183 39.9525C95.8074 39.5364 95.9808 39.0509 96.0208 38.5457C96.1157 37.9868 96.0814 37.4135 95.9204 36.8699C95.8895 36.6542 95.8055 36.4496 95.6758 36.2744C95.5462 36.0992 95.3751 35.959 95.1778 35.8664C95.0523 35.8119 94.9114 35.8042 94.7807 35.8447C94.6499 35.8852 94.5381 35.9712 94.4654 36.0872C94.3449 36.2578 94.375 36.3983 94.3349 36.3983C94.2948 36.3983 94.2145 36.2678 94.3349 36.0069C94.3913 35.8502 94.5015 35.7186 94.646 35.6356C94.8436 35.5226 95.0773 35.4902 95.2983 35.5453C95.5498 35.6424 95.7732 35.8006 95.9483 36.0056C96.1235 36.2105 96.245 36.4558 96.3017 36.7194C96.5051 37.3265 96.5568 37.9742 96.4523 38.6059C96.4071 39.1887 96.1933 39.7458 95.8369 40.2091C95.4806 40.6724 94.997 41.0219 94.4453 41.215C94.2647 41.2389 94.0811 41.2224 93.9076 41.1669C93.7341 41.1114 93.575 41.0181 93.4418 40.8939C93.2311 40.7333 93.221 40.5828 93.2411 40.5728Z" fill="#EB996E"/>
<path d="M61.7929 11.1706C62.9163 9.40123 64.4654 7.94181 66.2986 6.92587C70.1443 4.53451 74.6453 3.41453 79.1633 3.72474C83.6984 4.07805 87.9188 6.17929 90.9342 9.5851C93.2398 12.3785 94.674 15.7876 95.0585 19.3892C95.4333 22.9762 95.0923 26.602 94.055 30.0562C93.7338 31.612 92.9626 33.0392 91.8373 34.1605C91.0847 34.8027 89.8303 35.164 89.158 34.4816C88.7826 34.0324 88.5673 33.4711 88.5459 32.8861C87.7933 27.688 87.0908 22.0986 89.439 17.4023C88.4007 15.5993 87.0039 14.0283 85.3347 12.7862C84.4961 12.1708 83.5433 11.7287 82.5319 11.4858C81.5205 11.2428 80.4709 11.2039 79.4442 11.3713C76.4338 11.9734 74.3265 14.6427 71.7876 16.3887C69.9573 17.626 67.859 18.4105 65.6659 18.6774C63.4727 18.9444 61.2475 18.6862 59.1738 17.9241L61.7929 11.1706Z" fill="#263238"/>
<path d="M69.328 41.1651C69.404 41.7877 69.5696 42.3961 69.8197 42.9714C69.9478 43.2585 70.1345 43.5157 70.3678 43.7266C70.601 43.9374 70.8758 44.0972 71.1744 44.1956C71.5022 44.2642 71.842 44.2496 72.1628 44.1532C72.4835 44.0568 72.775 43.8816 73.0108 43.6437C73.4711 43.1547 73.766 42.5334 73.8537 41.8676C73.954 41.2655 73.8537 40.5128 73.2616 40.3121C73.0172 40.257 72.7635 40.257 72.5191 40.3121L69.1674 40.9243" fill="#EB996E"/>
<path d="M70.0318 43.9648C70.5809 44.112 71.1518 44.1596 71.7177 44.1053C72.3011 44.0087 72.8273 43.6973 73.1928 43.2323C73.4074 42.9494 73.5595 42.6243 73.639 42.2783C73.7186 41.9324 73.7238 41.5734 73.6544 41.2253C73.6208 41.0478 73.5634 40.8757 73.4838 40.7135C73.3935 40.553 73.4136 40.563 73.2731 40.563C73.0942 40.5825 72.9166 40.6127 72.7412 40.6533L72.1893 40.7537L70.2827 41.0748C69.7014 41.2128 69.1028 41.2635 68.5065 41.2253C69.0375 40.951 69.6108 40.7679 70.2024 40.6834C70.7443 40.5429 71.3765 40.4024 72.089 40.2419L72.6308 40.1215C72.8315 40.1215 72.9821 40.0312 73.243 40.0111C73.4047 39.9979 73.5664 40.0365 73.7046 40.1215C73.8224 40.2129 73.9184 40.3295 73.9856 40.4627C74.0889 40.6688 74.1632 40.8883 74.2063 41.1149C74.2939 41.5428 74.2844 41.985 74.1784 42.4087C74.0725 42.8325 73.8729 43.2271 73.5942 43.5634C73.1319 44.1027 72.4757 44.438 71.7678 44.4967C71.3087 44.5527 70.8431 44.4798 70.4232 44.2859C70.1322 44.1254 70.0117 43.9949 70.0318 43.9648Z" fill="#263238"/>
<path d="M45.5957 27.0257L44.0403 26.6042L19.8262 50.136L0.177902 52.5042C0.177902 52.5042 0.378605 46.5736 7.75423 39.0073C14.3772 32.2438 29.7808 24.2159 34.9989 20.0615C35.6725 19.4923 36.4354 19.038 37.2567 18.7168L45.5957 27.0257Z" fill="#FFBE9D"/>
<path d="M45.6062 15.8268L48.0848 15.1244L53.9251 12.3547L60.5682 14.8333C60.5682 14.8333 60.4177 17.1012 58.6716 16.4791L65.6358 18.7771C65.6358 18.7771 65.0638 20.4328 64.7527 20.5432C64.4416 20.6536 68.8369 21.0148 68.8369 21.0148C68.8369 21.0148 68.8369 23.2526 64.6724 23.2125C60.508 23.1723 58.8924 22.4599 58.8924 22.4599L55.5508 23.353L55.6812 25.3599L60.237 25.2897L60.0263 27.8385C58.091 28.2472 56.1345 28.5487 54.1659 28.7417C54.1659 28.7417 47.1415 28.842 45.2349 27.9188C43.3283 26.9956 40.8998 25.6811 40.8998 25.6811L37.2572 18.7369L45.6062 15.8268Z" fill="#FFBE9D"/>
<path d="M51.8771 17.001C51.8771 17.0612 52.2684 16.8705 52.8806 16.5896C53.7001 16.2377 54.4889 15.8181 55.2388 15.3352H54.9377L55.2086 15.5058C56.0379 16.0356 56.9729 16.3781 57.9482 16.5093C58.6907 16.6096 59.1523 16.5093 59.1523 16.5093C57.8719 16.2036 56.6371 15.7313 55.4796 15.1044L55.2287 14.9438L55.0782 14.8435L54.9277 14.9539C54.1148 15.5158 53.2619 15.9574 52.6999 16.3086C52.138 16.6598 51.8269 16.9508 51.8771 17.001Z" fill="#EB996E"/>
<path d="M54.0154 20.5431C54.0154 20.5431 54.467 20.7037 55.1393 20.4127C55.8116 20.1217 56.5643 19.4092 57.5176 19.0078H57.2767C57.7047 19.2962 58.1542 19.5512 58.6214 19.7705C59.7962 20.3315 61.0735 20.6457 62.3745 20.6937C62.909 20.7621 63.4522 20.7037 63.96 20.5231C62.201 20.3822 60.4745 19.9692 58.8422 19.2988C58.3975 19.0923 57.9683 18.8542 57.5577 18.5863L57.4273 18.5161H57.3169C56.2331 19.068 55.6009 19.8006 55.0089 20.1016C54.4168 20.4027 54.0154 20.4629 54.0154 20.5431Z" fill="#EB996E"/>
<path d="M47.7938 22.7208C47.7938 22.8011 48.3056 22.6505 49.0983 22.6606C50.1247 22.6736 51.1265 22.9762 51.9884 23.5336C52.5587 23.9018 53.0472 24.3834 53.4234 24.9485L53.4836 25.0389H53.5739C54.3467 25.2591 55.1491 25.3573 55.9521 25.3299C55.2334 24.9654 54.461 24.7181 53.6642 24.5973L53.8147 24.6977C53.4381 24.0451 52.9119 23.4914 52.2794 23.082C51.3362 22.4633 50.212 22.1805 49.0883 22.2793C48.2253 22.3796 47.7637 22.6706 47.7938 22.7208Z" fill="#EB996E"/>
<path d="M40.8998 25.6611C40.96 25.7141 41.0276 25.758 41.1005 25.7915L41.7327 26.1527L44.1611 27.4673C44.7352 27.8196 45.3525 28.0962 45.9975 28.2902C46.774 28.4707 47.5619 28.5981 48.3557 28.6715C50.0616 28.8421 52.0084 28.9123 54.1659 28.9123L56.785 28.6414C57.754 28.5605 58.7142 28.396 59.6549 28.1497H59.7553V28.0192C59.8958 27.1462 60.0463 26.1929 60.2069 25.2195L60.257 24.9385H59.9761L55.641 25.1192L55.9019 25.3399C55.9019 24.7278 55.8116 24.0454 55.7715 23.333L55.5808 23.5939L58.9324 22.7008H58.7618C60.3888 23.1956 62.0788 23.4525 63.7793 23.4634C64.6611 23.5192 65.5464 23.4754 66.4185 23.333C66.8945 23.274 67.3526 23.1147 67.7626 22.8656C68.1726 22.6165 68.525 22.2833 68.7967 21.8879C68.948 21.6238 69.0372 21.3287 69.0576 21.0249V20.7941H68.8067C67.8033 20.7038 66.7295 20.6135 65.716 20.5031L64.9734 20.4028H64.8129V20.453C64.8431 20.48 64.8649 20.5153 64.8756 20.5545C64.8862 20.5936 64.8854 20.635 64.8731 20.6737C64.8731 20.764 64.6925 20.8845 64.7326 20.8443C64.7915 20.8204 64.8458 20.7864 64.8931 20.744C65.0017 20.6308 65.093 20.5024 65.1641 20.3626C65.3962 19.9015 65.5973 19.4255 65.7662 18.9377L65.8565 18.6868L65.6056 18.6065L58.5812 16.3186L58.4207 16.7802C58.7026 16.8843 59.0056 16.9187 59.3037 16.8805C59.6095 16.8264 59.8865 16.6666 60.0864 16.429C60.4219 15.9919 60.6177 15.4638 60.6484 14.9137V14.7431L60.4678 14.6729L53.8147 12.2244H53.7344H53.6541L47.8238 15.0241L45.3854 15.7265L43.258 16.4791L39.8863 17.7034L37.7689 18.4861C37.5183 18.5612 37.2762 18.6621 37.0464 18.7872C37.301 18.7309 37.5522 18.6606 37.799 18.5764L39.9465 17.884L43.3483 16.7501L45.4757 16.0376L47.9242 15.3753L53.7845 12.6358H53.614L60.257 15.1345L60.0965 14.8936C60.0705 15.3405 59.9134 15.7698 59.6449 16.1279C59.5002 16.2716 59.3151 16.3678 59.1143 16.4037C58.9135 16.4395 58.7065 16.4134 58.521 16.3286L58.3605 16.8003L65.3146 19.1083L65.1541 18.7771C65.0007 19.2403 64.8094 19.6901 64.5821 20.1218C64.539 20.2117 64.4851 20.296 64.4215 20.3727C64.4496 20.4083 64.4701 20.4492 64.4817 20.4931C64.3814 20.2322 64.4817 20.4228 64.4115 20.3727H64.3412C64.2953 20.4114 64.2635 20.4644 64.2509 20.5232C64.2414 20.566 64.2429 20.6105 64.2552 20.6526C64.2675 20.6947 64.2902 20.733 64.3212 20.764C64.4014 20.8443 64.3814 20.8142 64.4014 20.8242H64.4917H64.7025L65.4752 20.9246C66.4787 21.045 67.4821 21.1353 68.5759 21.2256L68.3451 20.9748C68.3218 21.1829 68.257 21.3842 68.1545 21.5668C67.9214 21.8945 67.6226 22.17 67.277 22.3756C66.9314 22.5813 66.5467 22.7125 66.1475 22.761C65.3119 22.8968 64.4635 22.9372 63.6187 22.8814C61.9847 22.8762 60.3597 22.6397 58.792 22.179H58.6916H58.6214L55.2797 23.0821H55.079V23.2828C55.079 23.9752 55.1694 24.6576 55.2095 25.2898V25.5306H55.4503L59.7754 25.3299L59.5345 25.059C59.384 26.0624 59.2335 26.9957 59.103 27.8687L59.2234 27.7082C58.3265 27.9327 57.4142 28.0903 56.494 28.1798L53.8949 28.4708C51.7575 28.4708 49.8208 28.4708 48.1249 28.3103C47.3424 28.2572 46.5645 28.1499 45.7968 27.9891C45.1658 27.8097 44.5592 27.5536 43.9905 27.2265L41.5219 26.0022L40.8697 25.7012C40.9801 25.6811 40.9098 25.651 40.8998 25.6611Z" fill="#EB996E"/>
<path d="M49.2891 18.105C49.9256 19.1728 50.8103 20.0713 51.8681 20.7241C52.8345 21.5075 53.9728 22.0508 55.1896 22.3096C55.2498 22.1692 53.7847 21.4567 52.1792 20.3027C50.5736 19.1487 49.4095 18.0047 49.2891 18.105Z" fill="#EB996E"/>
<path d="M0.3881 51.7719L19.8256 50.1362L42.7453 58.8565L47.7627 61.9272L40.6179 86.4323C40.6179 86.4323 4.70309 65.2688 3.17779 63.4625C1.80959 61.8803 0.841919 59.9923 0.356403 57.9576C-0.129112 55.923 -0.118233 53.8015 0.3881 51.7719Z" fill="#FFB64F"/>
<path d="M104.151 69.7844L110.834 73.9288L95.4004 134.69L98.2001 169.722C94.1861 173.194 84.1513 176.174 65.085 175.09C46.0188 174.007 33.2946 165.708 33.2946 165.708L35.1209 129.673L39.466 89.0112L44.3329 61.2046L59.024 62.2683L64.7539 58.8765L67.3228 60.161L70.6142 69.2927L79.184 63.0912L89.2189 58.2644L92.8816 65.0982L104.151 69.7844Z" fill="#FFB64F"/>
<path d="M44.332 68.2791C44.1181 68.7107 43.9435 69.1607 43.8102 69.6237C43.4891 70.5068 43.0877 71.7912 42.606 73.3968C41.3793 77.5755 40.3744 81.8161 39.5956 86.101C38.8406 90.3852 38.3114 94.7062 38.0101 99.046C37.8997 100.712 37.8495 102.056 37.8395 102.99C37.7878 103.473 37.7878 103.961 37.8395 104.445C37.9347 103.968 37.9918 103.485 38.0101 103C38.1004 101.996 38.2108 100.662 38.3512 99.0761C38.6623 95.7646 39.1942 91.1886 40.0873 86.1913C40.9804 81.1939 42.0441 76.7184 42.8971 73.4972C43.3085 71.9618 43.6597 70.6774 43.9005 69.6839C44.0959 69.233 44.2406 68.7619 44.332 68.2791Z" fill="#263238"/>
<path d="M73.3526 68.761C73.8419 68.6775 74.3115 68.5039 74.7374 68.2492C75.9257 67.6233 76.9554 66.7344 77.7479 65.6502L77.3867 65.5498C77.5955 68.5431 78.1995 71.4955 79.1829 74.3303L79.2933 74.6514L79.5743 74.4608L80.2767 73.9691C83.7387 71.5908 86.8495 69.4132 89.0873 67.8077L91.7164 65.891C92.052 65.6725 92.3617 65.4166 92.6396 65.1284C92.2838 65.2871 91.9472 65.4857 91.6362 65.7204L88.9167 67.5066C86.6187 69.0219 83.4778 71.1593 80.0258 73.5275L79.3133 74.0092L79.7147 74.1397C78.7405 71.3461 78.107 68.4451 77.8282 65.4996V64.9578L77.5171 65.3993C76.7708 66.4654 75.8104 67.3643 74.6973 68.0385C73.8243 68.5302 73.3326 68.7108 73.3526 68.761Z" fill="#263238"/>
<path d="M59.6153 63.3521C60.6055 64.6685 61.6959 65.9064 62.8767 67.055L63.0573 67.2456L63.2379 67.0449C63.9117 66.2563 64.6393 65.5153 65.4155 64.8272C65.8369 64.466 66.2484 64.1248 66.6598 63.8237L67.2719 63.3722C67.3179 63.3607 67.365 63.3539 67.4124 63.3521C67.4124 63.3521 67.4124 63.3521 67.5027 63.5026L68.436 65.8909C68.6903 66.6447 69.0269 67.3682 69.4395 68.0484C69.3148 67.2634 69.0993 66.4956 68.7972 65.7604C68.5363 65.0078 68.2553 64.195 67.9643 63.332C67.9377 63.2402 67.8929 63.1547 67.8326 63.0806C67.7722 63.0064 67.6976 62.9452 67.6131 62.9005C67.5159 62.8681 67.4124 62.8593 67.3111 62.875C67.2099 62.8907 67.1139 62.9304 67.0311 62.9908L66.3889 63.4524C65.9574 63.7635 65.5259 64.1147 65.1044 64.4559C64.3046 65.1579 63.5661 65.9266 62.8967 66.7539H63.258C62.1337 65.5273 60.9158 64.3899 59.6153 63.3521Z" fill="#263238"/>
<path d="M63.5885 172.461C57.1551 171.253 50.5272 171.581 44.2446 173.419C37.962 175.257 32.2024 178.553 27.4348 183.038C22.6671 187.524 19.0263 193.072 16.8088 199.23C14.5913 205.389 13.8598 211.985 14.6738 218.48C15.4879 224.975 17.8245 231.186 21.4934 236.607C25.1623 242.028 30.0598 246.506 35.7869 249.676C41.514 252.846 47.9089 254.619 54.4508 254.85C60.9926 255.08 67.4965 253.763 73.4327 251.004C81.4133 247.288 88.008 241.134 92.2664 233.43C96.5248 225.725 98.227 216.867 97.1277 208.133C96.0284 199.399 92.1843 191.239 86.1495 184.83C80.1147 178.421 72.2008 174.093 63.5484 172.471L63.5885 172.461ZM48.767 251.415C39.6919 249.701 31.5277 244.801 25.7461 237.599C19.9645 230.397 16.9457 221.366 17.234 212.135C17.5222 202.904 21.0984 194.079 27.3181 187.252C33.5377 180.425 41.9917 176.044 51.1561 174.898C60.3204 173.753 69.5924 175.92 77.3008 181.007C85.0091 186.094 90.6467 193.767 93.1974 202.644C95.7481 211.52 95.0441 221.016 91.2123 229.419C87.3805 237.822 80.673 244.58 72.2988 248.475C64.955 251.891 56.7254 252.919 48.767 251.415Z" fill="#455A64"/>
<path d="M55.9923 256.895C66.9398 256.91 77.4955 252.822 85.5775 245.437C93.6595 238.053 98.6811 227.908 99.6517 217.004C100.622 206.099 97.4717 195.227 90.8211 186.531C84.1705 177.835 74.5028 171.947 63.7248 170.028C52.9468 168.109 41.8409 170.299 32.5976 176.165C23.3544 182.031 16.6447 191.147 13.7921 201.717C10.9395 212.286 12.1509 223.541 17.1876 233.261C22.2242 242.981 30.7203 250.461 41.0002 254.225C45.8016 255.99 50.8768 256.894 55.9923 256.895ZM55.902 176.505C61.0217 176.502 66.0858 177.566 70.7704 179.632C75.455 181.697 79.6569 184.718 83.1073 188.5C86.5577 192.282 89.1806 196.743 90.8083 201.597C92.436 206.451 93.0326 211.592 92.5599 216.69C92.0872 221.787 90.5557 226.73 88.0632 231.203C85.5708 235.675 82.1724 239.577 78.0854 242.661C73.9984 245.744 69.3127 247.94 64.3283 249.109C59.3438 250.278 54.1702 250.394 49.1385 249.449C43.3947 248.359 37.9917 245.922 33.3739 242.337C28.756 238.752 25.0553 234.122 22.5762 228.827C19.9712 223.222 18.8194 217.052 19.2272 210.885C19.635 204.717 21.5892 198.752 24.9096 193.539C28.23 188.326 32.8096 184.033 38.226 181.056C43.6425 178.079 49.7214 176.514 55.902 176.505Z" fill="#455A64"/>
<path d="M157.053 172.732L156.682 171.829C155.899 169.892 154.173 168.758 152.829 169.31L92.0776 194.026C91.7765 194.146 91.6762 194.598 91.8468 195.029L94.4358 201.392C94.6164 201.823 94.9977 202.074 95.2988 201.953L156.05 177.187C157.395 176.636 157.846 174.629 157.053 172.732Z" fill="#455A64"/>
<path d="M100.316 102.729L107.622 126.903L103.959 176.174L114.736 177.529C114.736 177.529 127.079 135.603 125.855 128.017C124.631 120.43 119.593 98.3335 119.593 98.3335L100.316 102.729Z" fill="#FFBE9D"/>
<path d="M103.989 175.823L98.9715 184.393L95.8406 192.42L100.527 190.584C100.527 190.584 102.534 200.278 103.347 200.529C104.159 200.779 106.417 199.997 106.187 198.14C106.521 198.466 106.925 198.711 107.369 198.857C107.812 199.003 108.283 199.047 108.745 198.983C110.17 198.692 110.512 197.769 110.351 195.973C110.351 195.973 112.007 197.317 113 196.485C113.304 196.185 113.541 195.824 113.695 195.427C113.849 195.029 113.916 194.603 113.893 194.177C113.893 194.177 116.051 194.357 116.352 193.243C116.669 191.413 116.709 189.546 116.472 187.704C116.221 186.48 115.178 181.502 115.178 181.502L114.696 177.489L103.989 175.823Z" fill="#FFBE9D"/>
<path d="M105.164 192.551C105.555 193.423 105.809 194.351 105.916 195.301C106.164 196.226 106.269 197.184 106.227 198.141C105.834 197.269 105.58 196.341 105.475 195.391C105.227 194.466 105.122 193.508 105.164 192.551Z" fill="#EB996E"/>
<path d="M109.558 191.437C109.926 192.114 110.155 192.857 110.23 193.624C110.453 194.365 110.532 195.142 110.461 195.912C110.101 195.229 109.873 194.483 109.789 193.715C109.571 192.976 109.493 192.204 109.558 191.437Z" fill="#EB996E"/>
<path d="M113.231 190.403C113.449 191.012 113.565 191.653 113.573 192.3C113.743 193.303 114.014 194.156 113.884 194.206C113.438 193.694 113.173 193.048 113.131 192.37C112.979 191.718 113.014 191.036 113.231 190.403Z" fill="#EB996E"/>
<path d="M100.196 187.784C100.584 188.64 100.854 189.545 100.999 190.474C101.289 191.368 101.465 192.295 101.521 193.233C101.036 192.419 100.712 191.52 100.567 190.584C100.271 189.682 100.145 188.733 100.196 187.784Z" fill="#EB996E"/>
<path d="M126.448 144.293C126.448 143.47 129.819 131.99 128.796 126.039C127.772 120.089 115.53 79.8791 113.884 77.0091C112.587 75.0735 110.777 73.5375 108.656 72.5737C106.294 73.854 104.213 75.597 102.539 77.6986C100.865 79.8003 99.6316 82.2175 98.912 84.8062C96.4534 93.6269 96.4534 104.695 96.4534 104.695L106.298 129.11L105.124 142.978L126.448 144.293Z" fill="#FFB64F"/>
<path d="M97.076 103.893C97.1763 103.893 96.9857 102.087 97.076 99.1965C97.1375 97.5155 97.3017 95.8399 97.5677 94.179C98.2055 90.0818 99.4643 86.1058 101.301 82.3881C102.047 80.8701 102.885 79.399 103.809 77.9828C105.395 75.5543 106.579 74.1996 106.509 74.1394C106.182 74.4107 105.886 74.7169 105.626 75.0526C104.875 75.9051 104.178 76.8032 103.538 77.7419C102.562 79.1451 101.684 80.6136 100.909 82.1372C99.009 85.8862 97.7313 89.9194 97.1262 94.0787C96.8856 95.7743 96.7582 97.484 96.7448 99.1965C96.729 100.346 96.786 101.496 96.9154 102.638C96.9287 103.061 96.9825 103.481 97.076 103.893Z" fill="#263238"/>
<path d="M97.7071 109C97.9527 110.031 98.2885 111.039 98.7106 112.011C99.4231 113.867 100.497 116.386 101.721 119.136L104.892 126.16C105.278 127.158 105.734 128.127 106.257 129.06C106.011 128.029 105.676 127.022 105.253 126.05C104.541 124.193 103.467 121.675 102.243 118.925L99.0719 111.901C98.686 110.903 98.23 109.934 97.7071 109Z" fill="#263238"/>
<path d="M105.725 130.054C107.891 128.898 110.146 127.918 112.469 127.124C114.845 126.503 117.268 126.077 119.714 125.849C118.996 125.692 118.257 125.652 117.526 125.729C115.76 125.813 114.011 126.113 112.318 126.622C110.623 127.129 108.998 127.847 107.481 128.759C106.831 129.094 106.238 129.531 105.725 130.054Z" fill="#263238"/>
<path d="M41.6427 199.204C41.5524 199.315 49.4598 206.229 59.3141 214.668C69.1683 223.107 77.2263 229.841 77.3166 229.72C77.4069 229.6 69.4995 222.696 59.6452 214.267C49.791 205.837 41.733 199.094 41.6427 199.204Z" fill="white"/>
<path d="M31.4675 199.204C31.3672 199.315 38.0303 205.225 46.3492 212.34C54.6681 219.455 61.4718 225.195 61.5721 225.084C61.6725 224.974 54.9993 219.063 46.6904 211.948C38.3816 204.834 31.5578 199.094 31.4675 199.204Z" fill="white"/>
<path d="M16.4845 213.303C16.4845 213.303 16.4844 213.092 16.5447 212.671C16.6049 212.249 16.6049 211.607 16.6651 210.794C16.6651 210.383 16.6651 209.921 16.7454 209.419C16.8256 208.918 16.9059 208.366 16.9962 207.764C17.0865 207.162 17.1869 206.529 17.2973 205.847C17.4077 205.165 17.6385 204.462 17.8091 203.699C18.735 200.011 20.2099 196.483 22.1842 193.233C24.7682 188.915 28.1579 185.133 32.1689 182.094L33.8648 180.83C34.4669 180.439 35.0891 180.087 35.7113 179.706C36.3334 179.325 36.9455 178.903 37.6279 178.592L39.6349 177.589L40.6384 177.097L41.7322 176.706L43.9398 175.903C44.6925 175.652 45.4752 175.491 46.2479 175.281C47.0291 175.053 47.8233 174.872 48.6261 174.739C50.2635 174.435 51.9198 174.244 53.5834 174.167C54.4263 174.167 55.2792 174.056 56.1422 174.067L58.7312 174.207C59.1728 174.207 59.6143 174.207 60.0458 174.287L61.3503 174.488C62.2234 174.639 63.1165 174.739 63.9895 174.919C65.7641 175.316 67.5106 175.829 69.2177 176.455C70.9694 177.087 72.676 177.838 74.3254 178.703C75.1583 179.154 75.9511 179.706 76.7739 180.158C77.1753 180.419 77.5968 180.639 77.9781 180.92L79.1321 181.793C82.3591 184.094 85.1806 186.915 87.4811 190.142L88.3843 191.347L89.177 192.641L89.9597 193.936C90.2374 194.361 90.4823 194.807 90.6923 195.27L92.0169 198.03C92.3781 199.033 92.7294 199.966 93.0806 200.94C95.7767 208.961 95.7767 217.644 93.0806 225.666C92.7193 226.669 92.3681 227.603 92.0169 228.566C91.6657 229.529 91.1238 230.412 90.6823 231.335L90.3511 232.018L89.9497 232.67L89.167 233.965L88.3742 235.259L87.4711 236.463C86.2964 238.047 85.0192 239.552 83.6478 240.969C82.2473 242.323 80.7625 243.586 79.2024 244.752L78.0484 245.615C77.657 245.906 77.2355 246.117 76.8341 246.378C76.0113 246.859 75.2185 247.381 74.3957 247.833C72.7439 248.7 71.0338 249.451 69.2779 250.081C67.5708 250.707 65.8243 251.22 64.0497 251.616C63.1767 251.797 62.2836 251.897 61.4105 252.047L60.106 252.248C59.6645 252.308 59.233 252.298 58.7915 252.328L56.2025 252.469C55.3395 252.469 54.4865 252.399 53.6436 252.369C51.98 252.292 50.3237 252.101 48.6863 251.797C47.8826 251.668 47.0881 251.487 46.3081 251.255C45.5354 251.044 44.7426 250.883 44 250.643L41.7924 249.83L40.6986 249.438L39.6951 248.947L37.6881 247.943C37.0058 247.632 36.4037 247.191 35.7715 246.829C35.1393 246.468 34.5271 246.097 33.925 245.705L32.2292 244.441C28.2157 241.405 24.8256 237.623 22.2445 233.302C20.2555 230.078 18.7605 226.574 17.8091 222.906C17.6385 222.144 17.3775 221.451 17.2973 220.759C17.217 220.066 17.0865 219.434 16.9962 218.842C16.9059 218.25 16.7955 217.698 16.7454 217.196C16.6952 216.695 16.6851 216.193 16.6651 215.812C16.6049 215.009 16.5647 214.387 16.5447 213.945C16.5447 213.524 16.4845 213.303 16.4845 213.303C16.4845 213.303 16.4845 213.524 16.4845 213.945C16.4845 214.367 16.4845 215.009 16.5547 215.822C16.5547 216.236 16.5748 216.698 16.6149 217.206C16.6149 217.708 16.7554 218.26 16.8357 218.862L17.1167 220.789C17.2475 221.519 17.415 222.243 17.6184 222.956C18.5035 226.68 19.959 230.244 21.9334 233.523C24.5189 237.895 27.9266 241.726 31.9682 244.802L33.6742 246.087C34.2763 246.478 34.9085 246.849 35.5306 247.231C36.1528 247.612 36.7749 248.044 37.4573 248.365L39.5145 249.368L40.518 249.86L41.6218 250.271L43.8495 251.084C44.6021 251.345 45.3949 251.506 46.1877 251.716C46.973 251.957 47.7745 252.141 48.586 252.268C50.2423 252.584 51.919 252.782 53.6034 252.86C54.4664 252.86 55.3194 252.981 56.1924 252.971L58.8216 252.84C59.2531 252.84 59.7046 252.84 60.1462 252.76L61.4708 252.559C62.3538 252.409 63.2469 252.308 64.14 252.128C65.9354 251.731 67.7021 251.215 69.4284 250.582C71.21 249.952 72.9439 249.194 74.6164 248.314C75.4493 247.863 76.2521 247.311 77.085 246.849C77.4964 246.588 77.9279 246.368 78.3193 246.077L79.4532 245.184C81.0397 244.012 82.5451 242.735 83.9589 241.36C85.363 239.922 86.6641 238.386 87.8524 236.764L88.7756 235.55L89.5684 234.236L90.3712 232.921L90.7726 232.269L91.1138 231.566L92.4986 228.767L93.5823 225.826C96.3189 217.688 96.3189 208.878 93.5823 200.739L92.4986 197.819C92.047 196.886 91.5954 195.953 91.1539 195.019C90.9361 194.552 90.6881 194.1 90.4113 193.665L89.6085 192.35L88.8057 191.046L87.8926 189.831C86.6982 188.215 85.3975 186.679 83.999 185.235C82.5852 183.861 81.0799 182.583 79.4934 181.412L78.3193 180.539C77.925 180.257 77.5164 179.996 77.095 179.756C76.2622 179.275 75.4594 178.753 74.6265 178.291C72.9519 177.416 71.2184 176.658 69.4384 176.023C67.7122 175.391 65.9454 174.874 64.1501 174.478C63.257 174.297 62.3639 174.197 61.4808 174.046L60.1562 173.846C59.7147 173.796 59.2731 173.796 58.8316 173.765L56.2025 173.635C55.3395 173.635 54.4764 173.715 53.6235 173.745C51.9391 173.823 50.2624 174.021 48.6061 174.337C47.7966 174.475 46.9959 174.659 46.2077 174.889C45.425 175.1 44.6322 175.271 43.8696 175.522L41.6419 176.334L40.5481 176.746L39.5446 177.248L37.5376 178.251C36.8731 178.592 36.2266 178.967 35.6009 179.375C34.9787 179.756 34.3465 180.128 33.7444 180.519L32.0385 181.803C27.9968 184.88 24.5892 188.71 22.0036 193.083C20.0293 196.361 18.5737 199.926 17.6886 203.649C17.518 204.412 17.2672 205.124 17.1869 205.817C17.1066 206.509 16.9962 207.151 16.9059 207.744C16.8156 208.336 16.7253 208.898 16.6851 209.399C16.645 209.901 16.6851 210.403 16.6249 210.784C16.6249 211.597 16.6249 212.219 16.5547 212.661C16.4845 213.102 16.4845 213.303 16.4845 213.303Z" fill="#263238"/>
<path d="M31.0449 234.246C30.7378 233.778 30.4026 233.329 30.0414 232.901C29.1293 231.699 28.2915 230.442 27.5327 229.138C24.9939 224.85 23.4107 220.064 22.8911 215.107C22.3716 210.15 22.9279 205.14 24.5223 200.418C25.0033 198.987 25.5627 197.583 26.1981 196.214C26.4667 195.727 26.6982 195.22 26.8905 194.698C26.8905 194.698 26.7901 194.809 26.6396 195.05C26.4891 195.291 26.2683 195.642 26.0175 196.123C25.3021 197.467 24.6883 198.863 24.1811 200.298C22.4615 205.051 21.839 210.131 22.3603 215.158C22.8817 220.186 24.5333 225.03 27.1915 229.329C27.9913 230.626 28.8834 231.863 29.8608 233.032C30.202 233.443 30.503 233.744 30.6937 233.955C30.8844 234.166 31.0249 234.256 31.0449 234.246Z" fill="#263238"/>
<path d="M33.1217 237.848C33.0515 237.979 33.3626 238.29 33.8141 238.551C34.2657 238.811 34.6972 238.912 34.7674 238.791C34.8377 238.671 34.5266 238.35 34.075 238.089C33.6235 237.828 33.192 237.728 33.1217 237.848Z" fill="#263238"/>
<path d="M84.8633 230.192C84.964 230.046 85.045 229.887 85.1041 229.72C85.2446 229.409 85.4653 228.948 85.6961 228.325C86.3643 226.583 86.8977 224.791 87.2917 222.967C88.6126 216.911 88.4579 210.627 86.8407 204.643C85.2235 198.66 82.1911 193.153 77.9994 188.587C76.7465 187.202 75.3841 185.92 73.9252 184.754C73.4235 184.333 72.992 184.052 72.711 183.841C72.43 183.63 72.2795 183.54 72.2595 183.56C72.2394 183.58 72.8013 184.052 73.7948 184.915C75.1923 186.129 76.5064 187.437 77.7285 188.828C81.7984 193.407 84.7476 198.869 86.3429 204.783C87.9382 210.698 88.1359 216.902 86.9204 222.907C86.5566 224.719 86.0738 226.506 85.4754 228.255C85.084 229.499 84.8231 230.182 84.8633 230.192Z" fill="white"/>
<path d="M61.5706 181.011C63.0854 181.481 64.6849 181.615 66.2568 181.402C65.5279 181.078 64.7361 180.921 63.9388 180.941C63.1536 180.792 62.3455 180.816 61.5706 181.011Z" fill="white"/>
</svg>
