<svg width="310" height="306" viewBox="0 0 310 306" fill="none" xmlns="http://www.w3.org/2000/svg">
<path d="M127.115 256.167C98.1229 236.899 101.502 196.723 108.994 179.566L131.597 175.627C123.97 185.028 123.166 219.115 132.784 226.473C142.401 233.832 160.289 233.741 167.365 223.91C172.928 216.193 173.704 198.316 183.102 196.878C179.164 176.921 193.301 155.131 213.128 150.604C214.204 144.974 216.541 139.661 219.963 135.063C223.385 130.465 227.804 126.701 232.888 124.054C237.972 121.407 243.589 119.945 249.318 119.778C255.047 119.611 260.74 120.744 265.969 123.09L265.535 187.774C265.535 187.774 271.696 218.466 252.541 225.626C245.998 228.071 239.511 226.646 233.993 224.012C233.571 224.993 232.966 225.886 232.21 226.641C229.238 229.549 224.597 230.308 220.51 229.436C219.983 229.323 219.493 229.186 218.956 229.009C214.65 242.243 202.304 256.469 190.876 262.418C174.344 271.077 142.711 266.525 127.115 256.167Z" fill="#F5F5F5"/>
<path d="M186.92 203.719C186.92 203.719 186.892 203.609 186.794 203.4L186.365 202.507C186.168 202.111 185.931 201.622 185.698 201.03C185.464 200.438 185.151 199.764 184.904 198.978C183.338 194.552 182.652 189.862 182.885 185.172C183.029 181.957 183.621 178.778 184.644 175.726C185.801 172.201 187.55 168.899 189.817 165.962C195.044 159.183 202.527 154.503 210.909 152.768C212.11 152.509 213.329 152.377 214.459 152.239L214.68 152.219L214.691 152.004C215.076 147.071 216.496 142.274 218.858 137.927C221.22 133.579 224.471 129.778 228.4 126.77C229.769 125.768 231.195 124.847 232.671 124.011C235.311 122.487 238.13 121.297 241.063 120.466C245.295 119.232 249.749 118.96 254.1 119.671C254.875 119.778 255.539 119.936 256.124 120.071C256.617 120.175 257.105 120.303 257.586 120.456L258.486 120.707C258.586 120.745 258.69 120.768 258.797 120.773C258.797 120.773 258.702 120.717 258.503 120.659L257.62 120.359C257.143 120.185 256.656 120.041 256.16 119.93C255.578 119.773 254.91 119.601 254.111 119.455C249.723 118.664 245.213 118.882 240.922 120.091C237.952 120.905 235.097 122.091 232.424 123.62C230.923 124.453 229.476 125.378 228.089 126.389C226.628 127.487 225.255 128.7 223.984 130.014C218.242 135.946 214.747 143.692 214.098 151.922L214.335 151.678C209.436 152.162 204.69 153.651 200.392 156.052C196.095 158.453 192.339 161.715 189.358 165.633C187.069 168.613 185.307 171.964 184.149 175.539C183.126 178.644 182.546 181.878 182.423 185.145C182.216 189.874 182.962 194.596 184.617 199.03C184.862 199.727 185.144 200.41 185.461 201.077C185.669 201.579 185.905 202.068 186.169 202.543C186.373 202.908 186.529 203.197 186.644 203.417C186.727 203.525 186.82 203.626 186.92 203.719Z" fill="#263238"/>
<path d="M175.174 209.34C175.273 209.328 175.182 208.436 175.431 207.045C175.582 206.237 175.82 205.448 176.142 204.692C176.547 203.77 177.061 202.899 177.671 202.099C178.309 201.316 179.037 200.611 179.841 199.999C180.502 199.509 181.216 199.094 181.968 198.761C183.267 198.198 184.152 198.08 184.136 197.989C184.12 197.897 183.909 197.959 183.501 197.999C182.929 198.072 182.368 198.215 181.83 198.423C181.022 198.715 180.258 199.115 179.557 199.611C177.822 200.835 176.477 202.534 175.683 204.503C175.362 205.302 175.15 206.141 175.052 206.996C174.972 207.569 174.967 208.149 175.036 208.723C175.098 209.132 175.146 209.347 175.174 209.34Z" fill="#263238"/>
<path d="M185.383 233.657C185.383 233.657 185.431 233.022 185.648 231.903C185.957 230.312 186.58 228.798 187.48 227.451C188.82 225.416 190.779 223.867 193.067 223.032C195.919 221.999 199.059 222.095 201.843 223.301L202.231 223.472L202.206 223.061C202.156 221.69 202.261 220.318 202.52 218.971C203.186 215.503 204.815 212.294 207.222 209.71C209.22 207.628 211.675 206.041 214.393 205.073C216.227 204.419 218.149 204.044 220.093 203.96C221.473 203.911 222.242 203.991 222.236 203.941C222.057 203.886 221.872 203.855 221.685 203.849C221.154 203.784 220.62 203.753 220.085 203.757C217.621 203.769 215.184 204.273 212.916 205.239C210.649 206.204 208.597 207.612 206.88 209.38C205.143 211.201 203.788 213.352 202.897 215.706C202.006 218.06 201.596 220.569 201.691 223.084L202.059 222.835C199.149 221.567 195.861 221.479 192.886 222.588C190.522 223.479 188.514 225.117 187.166 227.253C186.271 228.649 185.68 230.218 185.431 231.857C185.365 232.297 185.332 232.741 185.334 233.186C185.328 233.345 185.344 233.503 185.383 233.657Z" fill="#263238"/>
<path d="M112.466 241.022C112.579 241.269 112.711 241.507 112.862 241.733C113.146 242.18 113.549 242.86 114.117 243.695C115.756 246.035 117.608 248.218 119.649 250.218C122.686 253.161 126.055 255.742 129.689 257.907C131.834 259.192 134.052 260.352 136.331 261.38C138.774 262.496 141.278 263.474 143.83 264.309C152.791 267.287 162.196 268.71 171.637 268.516C174.493 268.46 177.339 268.15 180.14 267.587C181.123 267.363 181.887 267.173 182.393 267.005C182.656 266.938 182.913 266.848 183.159 266.734C182.889 266.771 182.622 266.828 182.36 266.904C181.846 267.044 181.085 267.189 180.095 267.386C177.299 267.87 174.468 268.125 171.631 268.151C162.249 268.236 152.918 266.773 144.012 263.822C141.478 262.996 138.991 262.028 136.565 260.923C134.296 259.913 132.087 258.77 129.951 257.502C126.324 255.37 122.949 252.837 119.888 249.951C117.857 247.992 115.992 245.868 114.312 243.601C113.716 242.795 113.302 242.132 113.006 241.666C112.844 241.437 112.663 241.221 112.466 241.022Z" fill="#263238"/>
<path d="M127.711 217.787C127.781 218.241 127.912 218.683 128.102 219.101C128.511 220.252 129.026 221.363 129.64 222.419C131.655 225.952 134.611 228.856 138.179 230.807C141.747 232.758 145.787 233.68 149.849 233.469C151.065 233.416 152.273 233.251 153.459 232.976C153.903 232.894 154.335 232.758 154.747 232.571C153.122 232.836 151.483 233.01 149.839 233.091C145.861 233.198 141.926 232.249 138.435 230.34C134.944 228.432 132.021 225.632 129.964 222.226C129.119 220.796 128.366 219.314 127.711 217.787Z" fill="#263238"/>
<path d="M123.198 172.424C125.277 176.635 126.5 181.216 126.797 185.903C126.834 186.57 126.661 187.231 126.301 187.794C125.942 188.356 125.414 188.792 124.794 189.038C124.173 189.284 123.491 189.329 122.843 189.166C122.196 189.003 121.616 188.64 121.186 188.129L121.117 188.088C121.813 193.788 122.13 199.528 122.067 205.27C122.065 206.078 121.813 206.865 121.347 207.524C120.88 208.183 120.221 208.681 119.46 208.951C118.699 209.221 117.873 209.248 117.095 209.03C116.318 208.812 115.627 208.358 115.117 207.732C105.891 196.504 101.05 182.31 101.494 167.785L123.198 172.424Z" fill="#029491"/>
<g opacity="0.3">
<path d="M120.678 177.648C121.073 178.346 121.324 179.116 121.417 179.912C121.459 180.31 121.385 180.711 121.204 181.067C121.023 181.424 120.742 181.72 120.396 181.92C119.308 182.443 117.924 181.569 116.853 182.161C115.782 182.753 115.858 184.382 116.142 185.621L117.058 189.539C117.284 190.5 117.426 191.701 116.608 192.279C115.79 192.857 114.49 192.277 113.685 191.546C111.82 189.824 110.4 187.676 109.547 185.284C108.695 182.893 108.435 180.33 108.791 177.816L120.678 177.648Z" fill="black"/>
</g>
<path d="M121.651 223.068C122.425 223.563 122.974 224.341 123.179 225.235C123.385 226.13 123.231 227.07 122.751 227.852C122.271 228.634 121.502 229.197 120.611 229.418C119.721 229.64 118.778 229.503 117.988 229.037C117.197 228.571 116.621 227.813 116.383 226.926C116.146 226.039 116.266 225.095 116.718 224.296C117.17 223.497 117.917 222.907 118.8 222.654C119.682 222.4 120.628 222.504 121.435 222.941" fill="#029491"/>
<path d="M111.036 2.64008C116.268 2.43932 126.385 15.5901 136.158 37.8219C141.937 50.9292 145.584 64.8764 146.96 79.1352L150.63 176.28L125.039 177.247L110.191 177.814L84.5998 178.78L81.2722 90.6195C80.9402 81.995 81.436 73.3586 82.753 64.8288C84.0331 56.2805 85.9997 47.8491 88.6337 39.6166C96.165 16.6237 105.809 2.83219 111.036 2.64008Z" fill="#F5F5F5"/>
<path d="M82.3214 117.868L82.0821 118.076C75.1526 124.084 69.6619 131.573 66.0157 139.989C62.3695 148.405 60.661 157.532 61.0165 166.697L61.4581 178.338L83.9646 161.4L82.3214 117.868Z" fill="#029491"/>
<path d="M82.3211 117.867L82.328 118.093L82.3432 118.719L82.4392 121.105L82.7021 130.125L83.7939 161.392L83.8652 161.271L63.3866 176.725L61.3552 178.196L61.6145 178.348L61.346 171.492C61.2769 169.238 61.1425 167.016 61.1532 164.844C61.1205 160.664 61.5113 156.492 62.3195 152.392C63.0428 148.685 64.1206 145.057 65.5379 141.557C66.1566 139.895 66.9364 138.374 67.62 136.878C68.3037 135.383 69.0951 134.02 69.9113 132.754C72.3432 128.691 75.2424 124.927 78.5496 121.538C79.6879 120.299 80.69 119.469 81.3046 118.841L82.2819 117.914L82.0151 118.13L81.2778 118.708C80.6336 119.307 79.6143 120.127 78.4587 121.357C75.0973 124.728 72.1547 128.492 69.6948 132.568C68.8699 133.829 68.1253 135.231 67.376 136.7C66.6267 138.168 65.8988 139.72 65.2663 141.385C63.8305 144.901 62.735 148.546 61.995 152.27C61.1755 156.392 60.7757 160.586 60.8016 164.788C60.7895 166.982 60.9202 169.191 60.998 171.45L61.2736 178.334L61.2865 178.668L61.5569 178.466L63.5883 176.996L84.098 161.548L84.1387 161.479L84.1744 161.419L82.8854 130.012L82.5059 121.052L82.4099 118.665C82.3959 118.412 82.3961 118.214 82.3794 118.065L82.3211 117.867Z" fill="#263238"/>
<path d="M148.355 115.381C148.355 115.381 148.485 115.458 148.623 115.539C155.883 120.934 161.838 127.891 166.049 135.895C170.26 143.9 172.62 152.748 172.954 161.787L173.392 173.274L149.982 158.31L148.355 115.381Z" fill="#029491"/>
<path d="M148.355 115.381L148.351 115.565L148.373 116.161L148.426 118.522L148.723 127.364L149.799 158.342L149.807 158.428L149.867 158.464C156.436 162.674 163.639 167.292 171.19 172.128C171.916 172.556 172.612 173.036 173.262 173.454L173.547 173.622L173.535 173.289L173.282 166.524C173.184 164.299 173.146 162.11 172.971 159.957C172.687 155.819 171.98 151.722 170.861 147.728C169.861 144.125 168.513 140.627 166.837 137.284C166.102 135.685 165.207 134.238 164.415 132.816C163.623 131.394 162.735 130.113 161.812 128.952C159.106 125.128 155.952 121.642 152.417 118.568C151.185 117.457 150.129 116.718 149.447 116.177C149.109 115.919 148.853 115.722 148.644 115.563C148.434 115.405 148.358 115.395 148.358 115.395C148.523 115.492 148.793 115.744 149.38 116.23C149.967 116.716 151.098 117.546 152.311 118.669C155.82 121.764 158.956 125.258 161.655 129.08C162.548 130.271 163.333 131.608 164.24 132.934C165.147 134.261 165.896 135.797 166.628 137.382C168.282 140.718 169.612 144.205 170.6 147.796C171.701 151.77 172.397 155.845 172.679 159.959C172.842 162.094 172.874 164.291 172.972 166.516L173.225 173.281L173.492 173.124C172.826 172.731 172.126 172.26 171.429 171.803C163.872 166.975 156.656 162.361 150.082 158.159L150.158 158.286L148.906 127.448L148.526 118.569L148.43 116.183L148.396 115.569L148.355 115.381Z" fill="#263238"/>
<path d="M111.035 2.64123C115.074 2.33101 122.058 10.3035 129.521 24.1616L92.7836 28.0512C99.1513 13.435 105.858 3.02571 111.035 2.64123Z" fill="#029491"/>
<path d="M84.6917 162.934C84.7028 163.034 99.3405 162.646 117.388 162.067C135.435 161.488 150.078 160.952 150.067 160.852C150.056 160.753 135.477 161.14 117.38 161.724C99.2828 162.309 84.6893 162.839 84.6917 162.934Z" fill="#263238"/>
<path d="M85.1049 165.869C85.0641 165.938 99.745 165.576 117.792 164.997C135.839 164.418 150.483 163.882 150.472 163.782C150.461 163.683 135.84 164.08 117.784 164.655C99.7285 165.229 85.0938 165.769 85.1049 165.869Z" fill="#263238"/>
<path d="M85.1595 168.976C85.1706 169.076 99.8083 168.688 117.856 168.109C135.903 167.53 150.546 166.994 150.535 166.894C150.524 166.795 135.904 167.192 117.848 167.767C99.7918 168.341 85.157 168.881 85.1595 168.976Z" fill="#263238"/>
<path d="M85.2241 172.09C85.2352 172.189 99.878 171.793 117.92 171.223C135.962 170.652 150.623 170.068 150.579 170.043C150.536 170.017 135.948 170.341 117.892 170.915C99.836 171.489 85.2268 171.986 85.2241 172.09Z" fill="#263238"/>
<path d="M85.2668 175.179C85.226 175.249 99.9069 174.887 117.963 174.312C136.019 173.738 150.645 173.192 150.642 173.098C150.64 173.003 136.011 173.396 117.955 173.97C99.8991 174.544 85.3075 175.11 85.2668 175.179Z" fill="#263238"/>
<path d="M115.219 116.7C115.219 116.7 115.142 116.83 115.16 117.155C115.178 117.48 115.14 117.9 115.128 118.475C115.119 119.635 115.163 121.28 115.229 123.322C115.347 127.411 115.582 133.059 115.88 139.292C116.178 145.525 116.476 151.164 116.711 155.251L117.016 160.09L117.119 161.397C117.116 161.551 117.136 161.703 117.177 161.851C117.191 161.697 117.193 161.542 117.182 161.388L117.152 160.077L116.956 155.232L116.203 139.296L115.453 123.338L115.226 118.545C115.211 117.977 115.175 117.525 115.187 117.229L115.219 116.7Z" fill="#263238"/>
<path d="M82.3222 117.867C82.3333 117.967 96.9944 117.5 115.062 116.828C133.129 116.156 147.796 115.541 147.793 115.446C147.791 115.351 133.13 115.818 115.054 116.485C96.978 117.153 82.3197 117.773 82.3222 117.867Z" fill="#263238"/>
<path d="M111.129 148.931C111.016 148.808 110.868 148.721 110.705 148.681C110.274 148.507 109.795 148.488 109.351 148.628C109.011 148.721 108.701 148.902 108.453 149.153C108.205 149.403 108.028 149.715 107.938 150.056C107.807 150.481 107.813 150.937 107.954 151.359C108.096 151.781 108.366 152.148 108.727 152.408C109.088 152.668 109.521 152.809 109.966 152.81C110.411 152.811 110.846 152.673 111.208 152.414C111.504 152.222 111.745 151.956 111.906 151.642C112.066 151.327 112.141 150.976 112.123 150.624C112.121 150.171 111.971 149.731 111.697 149.371C111.489 149.131 111.314 149.052 111.304 149.069C111.294 149.087 111.425 149.199 111.587 149.458C111.817 149.811 111.935 150.225 111.924 150.646C111.92 150.951 111.837 151.249 111.682 151.511C111.527 151.773 111.307 151.991 111.042 152.142C110.732 152.346 110.368 152.451 109.997 152.443C109.626 152.434 109.266 152.314 108.966 152.096C108.665 151.878 108.438 151.574 108.315 151.225C108.191 150.875 108.177 150.495 108.275 150.137C108.343 149.843 108.486 149.571 108.691 149.349C108.895 149.126 109.154 148.961 109.442 148.869C109.829 148.723 110.25 148.696 110.653 148.79C110.967 148.87 111.114 148.957 111.129 148.931Z" fill="#263238"/>
<path d="M110.072 130.172C110.072 130.172 109.961 130.025 109.649 129.922C109.217 129.748 108.738 129.729 108.294 129.869C107.954 129.962 107.644 130.143 107.396 130.394C107.148 130.644 106.971 130.956 106.882 131.297C106.75 131.722 106.756 132.178 106.897 132.6C107.039 133.022 107.309 133.389 107.67 133.649C108.031 133.909 108.464 134.05 108.909 134.051C109.355 134.052 109.789 133.914 110.151 133.655C110.447 133.463 110.688 133.197 110.849 132.883C111.01 132.568 111.085 132.217 111.066 131.865C111.058 131.415 110.907 130.979 110.635 130.62C110.534 130.486 110.4 130.379 110.247 130.31C110.247 130.31 110.363 130.449 110.526 130.707C110.755 131.06 110.873 131.475 110.862 131.896C110.859 132.199 110.777 132.495 110.623 132.756C110.469 133.017 110.249 133.233 109.985 133.383C109.676 133.587 109.312 133.693 108.941 133.686C108.571 133.679 108.211 133.559 107.91 133.342C107.609 133.126 107.381 132.823 107.257 132.473C107.132 132.124 107.117 131.745 107.213 131.387C107.282 131.091 107.426 130.818 107.631 130.594C107.837 130.371 108.096 130.204 108.385 130.11C108.772 129.97 109.191 129.946 109.591 130.04C109.91 130.111 110.057 130.198 110.072 130.172Z" fill="#263238"/>
<path d="M119.096 100.557C118.978 100.44 118.832 100.354 118.672 100.308C118.239 100.141 117.763 100.122 117.318 100.254C116.966 100.347 116.645 100.533 116.391 100.794C116.137 101.055 115.959 101.379 115.875 101.734C115.745 102.159 115.752 102.615 115.894 103.036C116.037 103.457 116.308 103.823 116.669 104.083C117.031 104.342 117.464 104.482 117.909 104.482C118.354 104.482 118.788 104.342 119.149 104.083C119.446 103.892 119.687 103.625 119.847 103.311C120.008 102.997 120.083 102.646 120.065 102.293C120.061 101.842 119.91 101.405 119.633 101.049C119.421 100.796 119.256 100.721 119.245 100.738C119.332 100.873 119.427 101.003 119.529 101.127C119.752 101.483 119.869 101.895 119.865 102.315C119.86 102.619 119.775 102.917 119.621 103.179C119.466 103.441 119.247 103.659 118.984 103.811C118.665 103.991 118.304 104.081 117.938 104.071C117.573 104.061 117.217 103.951 116.909 103.753C116.621 103.524 116.403 103.218 116.282 102.871C116.161 102.523 116.142 102.148 116.226 101.789C116.294 101.495 116.438 101.223 116.642 101.001C116.847 100.778 117.106 100.613 117.394 100.521C117.781 100.375 118.202 100.348 118.605 100.442C118.934 100.496 119.081 100.583 119.096 100.557Z" fill="#263238"/>
<path d="M123.063 87.3449C122.972 87.3611 122.781 93.911 122.602 101.96C122.424 110.009 122.439 116.564 122.538 116.553C122.638 116.542 122.821 109.987 123 101.938C123.178 93.889 123.184 87.3577 123.063 87.3449Z" fill="#263238"/>
<g opacity="0.3">
<path d="M149.929 157.195C149.929 157.195 148.212 129.042 148.355 115.381C151.321 121.87 154.654 129.298 155.51 136.384C156.311 143.774 154.32 151.197 149.929 157.195Z" fill="black"/>
</g>
<path d="M109.224 89.0672C98.6261 86.3959 92.2006 75.6393 94.872 65.0418C97.5433 54.4442 108.3 48.0188 118.897 50.6902C129.495 53.3615 135.92 64.1181 133.249 74.7156C130.578 85.3131 119.821 91.7386 109.224 89.0672Z" fill="white"/>
<path d="M105.001 87.4959C104.915 87.4307 104.822 87.376 104.724 87.3329C104.516 87.2106 104.248 87.0526 103.911 86.8539C103.467 86.6032 103.043 86.3182 102.643 86.0015C102.074 85.6048 101.533 85.1691 101.024 84.6975C99.6058 83.4331 98.3823 81.9661 97.3931 80.3441C96.0757 78.2005 95.1788 75.8255 94.7502 73.3463C94.1876 70.1228 94.4437 66.8096 95.4949 63.7107C96.5461 60.6119 98.3588 57.8268 100.767 55.6109C102.138 54.3207 103.701 53.2498 105.399 52.4357C106.271 52.0102 107.17 51.641 108.089 51.3305C109.032 51.06 109.99 50.8468 110.958 50.6921C115.065 50.0294 119.277 50.7 122.975 52.6054C126.673 54.5108 129.664 57.5509 131.508 61.28C131.947 62.148 132.33 63.0429 132.655 63.9593C132.94 64.8876 133.16 65.8348 133.314 66.7938C133.639 68.6509 133.676 70.547 133.425 72.4155C132.982 75.8701 131.63 79.1452 129.507 81.9064C127.801 84.1022 125.649 85.9121 123.194 87.217C120.738 88.522 118.034 89.2925 115.259 89.4779C113.365 89.6166 111.46 89.4713 109.608 89.0469C108.929 88.9049 108.259 88.7204 107.604 88.4945C107.114 88.3525 106.636 88.1721 106.174 87.9549C105.82 87.8045 105.532 87.6811 105.304 87.5934C105.21 87.5454 105.109 87.5098 105.006 87.4873C105.093 87.5492 105.186 87.6037 105.282 87.6504C105.49 87.7727 105.783 87.8874 106.127 88.0551C106.583 88.2924 107.058 88.4908 107.548 88.6481C108.195 88.8894 108.858 89.0855 109.532 89.235C111.396 89.7245 113.326 89.9186 115.25 89.8101C118.079 89.6543 120.842 88.8968 123.356 87.588C125.869 86.2792 128.073 84.4494 129.823 82.2206C132.025 79.3967 133.432 76.035 133.897 72.4841C134.161 70.569 134.128 68.6247 133.8 66.7195C133.506 64.7213 132.89 62.7842 131.974 60.9838C131.054 59.1087 129.839 57.3936 128.376 55.9038C126.861 54.3757 125.122 53.0875 123.219 52.0837C119.425 50.1427 115.111 49.4602 110.902 50.1349C109.898 50.2907 108.906 50.5199 107.935 50.8206C106.994 51.1416 106.074 51.5213 105.18 51.9572C103.445 52.7985 101.849 53.9003 100.447 55.2244C97.8264 57.6626 95.9057 60.7573 94.8838 64.1877C94.0835 66.9075 93.8721 69.7666 94.2638 72.5745C94.6554 75.3824 95.6409 78.0745 97.1548 80.4715C98.1707 82.1101 99.4312 83.5838 100.892 84.8414C101.411 85.3154 101.968 85.7452 102.558 86.1261C102.967 86.4358 103.401 86.711 103.855 86.9489C104.192 87.1477 104.46 87.3057 104.668 87.428C104.775 87.4646 104.887 87.4874 105.001 87.4959Z" fill="#263238"/>
<path d="M111.036 2.64029C110.959 2.6412 110.882 2.64638 110.805 2.65584C110.574 2.66659 110.346 2.70832 110.126 2.77988C109.259 3.05432 108.449 3.48461 107.735 4.04965C105.05 6.30723 102.761 8.99653 100.96 12.007C97.9869 16.714 95.4163 21.6632 93.2752 26.8021C90.3719 33.6253 87.9609 40.6476 86.0607 47.8151C85.0225 51.8159 84.0841 56.0426 83.2456 60.4951C82.3822 65.1388 81.7552 69.8235 81.367 74.5308C80.9648 79.589 80.8423 84.6655 81 89.7371L81.5922 105.905L84.3274 178.748L84.3363 179.01L84.5978 179.001C95.1927 178.595 106.297 178.174 117.608 177.759C128.918 177.345 140.024 176.902 150.628 176.501L150.884 176.501L150.875 176.239L148.133 103.369L147.505 87.2027L147.19 79.5157C147.038 76.968 146.665 74.4772 146.349 72.0306C144.916 63.0893 142.642 54.3034 139.556 45.7898C136.935 38.8467 133.87 32.0791 130.381 25.5291C127.825 20.587 124.9 15.8451 121.631 11.3437C119.65 8.4614 117.214 5.92 114.418 3.81869C113.673 3.29746 112.837 2.91937 111.953 2.70371C111.727 2.65071 111.494 2.62706 111.261 2.63336C111.183 2.6259 111.105 2.62652 111.027 2.63519C111.334 2.64133 111.639 2.6805 111.937 2.75203C112.806 2.9859 113.627 3.3748 114.358 3.90003C117.141 6.02881 119.564 8.58979 121.536 11.4855C124.77 15.9982 127.664 20.7452 130.194 25.6871C133.631 32.2353 136.65 38.9948 139.232 45.9248C142.284 54.4228 144.526 63.19 145.929 72.1096C146.294 74.5145 146.635 76.9987 146.777 79.5051L147.062 87.2217L147.668 103.386L150.38 176.25L150.632 175.979L117.617 177.229L84.6075 178.471L84.8779 178.723L82.098 105.877L81.492 89.7127C81.3241 84.6573 81.4335 79.5965 81.8198 74.5531C82.1967 69.6849 82.8609 65.0209 83.6541 60.5728C84.4473 56.1247 85.3609 51.8873 86.3969 47.8968C88.27 40.7417 90.6517 33.7295 93.5239 26.9138C95.6283 21.7757 98.1584 16.8225 101.088 12.1058C102.866 9.10045 105.123 6.40585 107.77 4.12855C108.47 3.55962 109.263 3.11669 110.115 2.81955C110.417 2.73724 110.725 2.67733 111.036 2.64029Z" fill="#263238"/>
</svg>
