<svg width="217" height="43" viewBox="0 0 217 43" fill="none" xmlns="http://www.w3.org/2000/svg">
<path d="M195.829 41.9805H21.5537C16.0898 41.9805 10.8498 39.81 6.98621 35.9464C3.12266 32.0829 0.952148 26.8428 0.952148 21.3789C0.952148 15.915 3.12266 10.6749 6.98621 6.8114C10.8498 2.94786 16.0898 0.777344 21.5537 0.777344H195.829C201.293 0.777344 206.533 2.94786 210.397 6.8114C214.26 10.6749 216.431 15.915 216.431 21.3789C216.431 26.8428 214.26 32.0829 210.397 35.9464C206.533 39.81 201.293 41.9805 195.829 41.9805Z" fill="white"/>
<path d="M195.828 41.9803L197.052 41.89C197.557 41.881 198.061 41.8306 198.558 41.7394C199.251 41.6527 199.938 41.522 200.615 41.3481L201.839 41.027C202.261 40.8865 202.692 40.7159 203.154 40.5453L203.856 40.2844L204.569 39.9332C205.077 39.7093 205.57 39.4511 206.044 39.1605C208.361 37.8268 210.39 36.0463 212.014 33.9223C212.499 33.3167 212.939 32.6761 213.329 32.0056C213.759 31.3148 214.138 30.5938 214.463 29.8481C214.814 29.0697 215.123 28.2724 215.386 27.4598C215.497 27.0384 215.607 26.6169 215.717 26.1754L215.888 25.5231L215.988 24.8508L216.199 23.476L216.259 22.0711V21.3486V20.6261C216.259 20.1344 216.259 19.6226 216.169 19.151C215.921 17.1053 215.383 15.1052 214.573 13.2103C212.713 9.01511 209.516 5.55369 205.482 3.36613C203.296 2.19815 200.916 1.43976 198.457 1.12836C195.929 0.847384 193.269 0.987859 190.57 0.957754L21.5928 1.03803C19.555 1.06589 17.5301 1.36626 15.5719 1.93114C13.6485 2.55347 11.8188 3.43458 10.133 4.55024C8.49258 5.6826 7.01391 7.03298 5.73773 8.56419C4.4977 10.1231 3.48419 11.8495 2.72727 13.692C1.99645 15.5314 1.52368 17.463 1.32239 19.4319C1.16109 21.3868 1.26234 23.3544 1.62344 25.2823C2.37937 29.1075 4.2225 32.6335 6.93188 35.4376C9.58754 38.2011 12.9736 40.1534 16.6958 41.0671C17.6071 41.2943 18.5323 41.4619 19.4654 41.5689C20.4087 41.5689 21.3319 41.6993 22.2852 41.6792H49.8811L125.855 41.7394L177.033 41.8197L190.961 41.8699H194.584H195.818H194.584H190.961H177.033L125.855 41.9602L49.8811 42.0104H22.2852C21.3419 42.0104 20.3686 41.9402 19.4153 41.9C18.4588 41.7897 17.5102 41.6187 16.5754 41.3882C12.7516 40.4594 9.27106 38.4616 6.54052 35.6282C5.1684 34.1963 4.00008 32.5823 3.06846 30.8316C2.14824 29.0578 1.47308 27.1674 1.06149 25.212C0.693535 23.2274 0.592288 21.2025 0.76044 19.1911C1.14194 15.1112 2.71592 11.2338 5.28616 8.04238C7.89269 4.80467 11.4086 2.42114 15.3812 1.1986C17.3806 0.614699 19.4499 0.304145 21.5326 0.275391L190.51 0.345627C193.209 0.345627 195.848 0.24529 198.437 0.546336C200.951 0.855509 203.384 1.63147 205.612 2.83428C209.705 5.06891 212.942 8.59816 214.814 12.8692C215.631 14.7897 216.168 16.8172 216.41 18.8901C216.46 19.3918 216.46 19.8935 216.49 20.3853V21.1178V21.8403C216.49 22.322 216.44 22.8438 216.42 23.2753C216.4 23.7068 216.269 24.2085 216.199 24.6601L216.099 25.3425L215.928 26.0048C215.808 26.4463 215.697 26.8778 215.587 27.2993C215.256 28.1221 215.035 28.9651 214.644 29.7177C214.306 30.4694 213.917 31.197 213.48 31.8952C213.08 32.5646 212.634 33.205 212.145 33.8119C210.505 35.9455 208.459 37.7327 206.124 39.0702C205.64 39.352 205.141 39.6066 204.629 39.8328L203.906 40.174L203.204 40.4349C202.732 40.6055 202.301 40.7761 201.869 40.9066L200.645 41.2176C199.962 41.3899 199.268 41.5139 198.568 41.5889C198.07 41.6693 197.567 41.7129 197.062 41.7194L195.828 41.9803Z" fill="#263238"/>
<path d="M194.414 25.5617C197.995 21.9798 197.995 16.1725 194.413 12.5907C190.832 9.00885 185.024 9.00883 181.443 12.5907C177.861 16.1725 177.861 21.9798 181.443 25.5617C185.024 29.1435 190.832 29.1435 194.414 25.5617Z" fill="white"/>
<path d="M187.921 29.9183C186.007 29.9202 184.135 29.3543 182.543 28.2922C180.95 27.23 179.709 25.7193 178.976 23.9512C178.242 22.1832 178.05 20.2373 178.423 18.3599C178.796 16.4825 179.717 14.7579 181.071 13.4044C182.424 12.0509 184.149 11.1294 186.026 10.7564C187.904 10.3835 189.849 10.5759 191.618 11.3093C193.386 12.0427 194.896 13.2842 195.958 14.8765C197.021 16.4689 197.587 18.3406 197.585 20.2547C197.582 22.8168 196.563 25.2732 194.751 27.0849C192.939 28.8966 190.483 29.9156 187.921 29.9183ZM187.921 11.5846C186.206 11.5826 184.528 12.0894 183.101 13.0409C181.674 13.9923 180.561 15.3457 179.904 16.9298C179.246 18.5139 179.073 20.2575 179.406 21.94C179.74 23.6225 180.565 25.1683 181.777 26.3818C182.989 27.5954 184.534 28.4221 186.216 28.7575C187.898 29.0928 189.642 28.9217 191.227 28.2658C192.811 27.6099 194.166 26.4986 195.119 25.0726C196.072 23.6466 196.581 21.9699 196.581 20.2547C196.581 17.957 195.669 15.7532 194.045 14.1275C192.421 12.5019 190.219 11.5872 187.921 11.5846Z" fill="#263238"/>
<path d="M195.585 25.2511L195.049 26.0996L202.813 31.0019L203.348 30.1534L195.585 25.2511Z" fill="#263238"/>
</svg>
