<svg width="301" height="227" viewBox="0 0 301 227" fill="none" xmlns="http://www.w3.org/2000/svg">
<path d="M300.556 0.722656H0.824219V225.945H300.556V0.722656Z" fill="white"/>
<path d="M300.556 225.945C300.556 225.945 300.556 225.584 300.556 224.891C300.556 224.199 300.556 223.165 300.556 221.811C300.556 219.101 300.556 215.087 300.506 209.839C300.506 199.363 300.446 183.969 300.395 164.321C300.345 125.085 300.265 68.8291 300.175 0.752528L300.606 1.18404L0.904825 1.27435L1.42664 0.752528C1.42664 81.7339 1.42664 158.41 1.42664 225.975L0.955002 225.503L217.287 225.734L278.73 225.865L295.037 225.925H299.241H300.315H299.261H295.117L278.901 225.985L217.568 226.116L0.924899 226.346H0.352912V225.875C0.352912 158.31 0.352909 81.6336 0.302734 0.652188V0.130371H0.854655L300.556 0.230711H300.997V0.652188C300.907 68.8893 300.837 125.225 300.777 164.522C300.727 184.13 300.696 199.483 300.666 209.939C300.666 215.147 300.666 219.141 300.666 221.831C300.666 223.165 300.666 224.179 300.666 224.841C300.666 225.503 300.556 225.945 300.556 225.945Z" fill="#263238"/>
<path d="M299.051 28.3084C298.801 28.3406 298.55 28.3574 298.298 28.3586H296.07L287.521 28.4489C280.105 28.5091 269.358 28.5392 256.091 28.5292C229.539 28.5292 192.872 28.3385 152.371 28.0074L48.6507 27.1745L17.2114 26.9236L8.67176 26.8232L6.44402 26.763C6.19397 26.7917 5.94146 26.7917 5.69141 26.763C5.93954 26.7176 6.19206 26.7008 6.44402 26.7128H8.67176L17.2114 26.6225C24.6372 26.5623 35.3745 26.5322 48.6507 26.5322C75.1929 26.5322 111.87 26.7329 152.381 27.0641L256.091 27.897L287.531 28.1378L296.07 28.2482H298.298C298.55 28.2418 298.803 28.262 299.051 28.3084Z" fill="#263238"/>
<path d="M20.4024 12.1219C20.4044 12.8213 20.1987 13.5056 19.8113 14.0881C19.4239 14.6705 18.8724 15.1248 18.2265 15.3934C17.5807 15.6619 16.8696 15.7327 16.1835 15.5968C15.4974 15.4608 14.8671 15.1242 14.3725 14.6296C13.8779 14.135 13.5413 13.5047 13.4053 12.8185C13.2693 12.1324 13.3401 11.4214 13.6087 10.7755C13.8773 10.1297 14.3316 9.57809 14.914 9.19073C15.4964 8.80336 16.1807 8.59764 16.8802 8.59962C17.8135 8.60227 18.7079 8.9742 19.3679 9.63418C20.0278 10.2942 20.3998 11.1885 20.4024 12.1219Z" fill="#263238"/>
<path d="M34.5216 12.1218C34.5235 12.8209 34.3181 13.5048 33.9311 14.087C33.5442 14.6692 32.9933 15.1235 32.348 15.3924C31.7027 15.6613 30.9922 15.7327 30.3064 15.5975C29.6205 15.4623 28.9902 15.1267 28.4952 14.6331C28.0002 14.1395 27.6628 13.5102 27.5256 12.8247C27.3885 12.1392 27.4579 11.4285 27.725 10.7825C27.992 10.1364 28.4447 9.58417 29.0258 9.1956C29.6069 8.80702 30.2902 8.59961 30.9893 8.59961C31.9244 8.59961 32.8213 8.97037 33.4834 9.63063C34.1456 10.2909 34.5189 11.1868 34.5216 12.1218Z" fill="#263238"/>
<path d="M45.1084 15.6944C47.0593 15.6944 48.6407 14.113 48.6407 12.1622C48.6407 10.2113 47.0593 8.62988 45.1084 8.62988C43.1576 8.62988 41.5762 10.2113 41.5762 12.1622C41.5762 14.113 43.1576 15.6944 45.1084 15.6944Z" fill="#263238"/>
<path d="M114.659 159.042H53.0654V205.153H114.659V159.042Z" fill="#EBEBEB"/>
<path d="M182.306 159.042H120.712V205.153H182.306V159.042Z" fill="#EBEBEB"/>
<path d="M261.138 159.042H199.544V205.153H261.138V159.042Z" fill="#EBEBEB"/>
</svg>
